<svg xmlns="http://www.w3.org/2000/svg" viewBox="0 0 1238 195" width="300" height="47">
	<style>
		tspan { white-space:pre }
		.shp0 { fill: #3b3c39 } 
		.shp1 { fill: #c4d345 } 
	</style>
	<g id="Layer 1">
		<g id="&lt;Group&gt;">
			<g id="type 1 ">
				<path id="type &lt;CompoundPathItem&gt; 19 " fill-rule="evenodd" class="shp0" d="M210.85 99.45L210.85 97.05C210.85 70.15 232.56 47.76 259.46 48.12C290.07 48.54 305.55 72.82 305.55 100.75C305.55 102.79 305.36 104.83 305.18 107.05L233.27 107.05C235.68 122.99 246.99 131.88 261.44 131.88C268.96 131.88 274.99 129.96 280.56 126.28C285.38 123.09 291.75 123.59 296.08 127.42L301.1 131.88C291.83 143 279.05 150.23 261.07 150.23C232.72 150.23 210.85 129.66 210.85 99.45ZM283.31 92.23C281.83 77.77 273.3 66.46 258.48 66.46C244.76 66.46 235.13 77.03 233.09 92.23L283.31 92.23Z" />
				<path id="type &lt;CompoundPathItem&gt; 18 " class="shp0" d="M314.72 99.64L314.72 99.27C314.72 71.47 336.22 48.12 365.68 48.12C384.03 48.12 395.52 54.97 404.79 64.98L390.7 79.99C383.84 72.76 376.62 67.76 365.5 67.76C349.19 67.76 337.14 81.85 337.14 98.9L337.14 99.27C337.14 116.69 349.19 130.59 366.42 130.59C373.21 130.59 378.86 128.59 383.89 125.25C388.96 121.88 395.64 122.32 399.98 126.59L405.34 131.88C395.7 142.63 384.4 150.23 365.31 150.23C336.22 150.23 314.72 127.44 314.72 99.64Z" />
				<path id="type &lt;CompoundPathItem&gt; 17 " fill-rule="evenodd" class="shp0" d="M407.29 99.64L407.29 99.27C407.29 71.28 429.53 48.12 459.56 48.12C489.58 48.12 511.63 70.91 511.63 98.9L511.63 99.27C511.63 127.06 489.39 150.23 459.18 150.23C429.35 150.23 407.29 127.44 407.29 99.64ZM489.21 99.64L489.21 99.27C489.21 82.03 476.79 67.76 459.18 67.76C441.21 67.76 429.72 81.85 429.72 98.9L429.72 99.27C429.72 116.32 442.14 130.59 459.56 130.59C477.72 130.59 489.21 116.5 489.21 99.64Z" />
				<path id="type &lt;CompoundPathItem&gt; 16 " class="shp0" d="M510.34 50.16L534.43 50.16L560.74 122.06L584.78 56.86C586.26 52.83 590.1 50.16 594.39 50.16L610.78 50.16L570.75 148.75L550.55 148.75L510.34 50.16Z" />
				<path id="type &lt;CompoundPathItem&gt; 15 " class="shp0" d="M739.53 50.16L751.71 50.16C757.37 50.16 761.95 54.74 761.95 60.4L761.95 65.17C768.26 56.08 777.34 48.12 792.53 48.12C814.59 48.12 827.37 62.94 827.37 85.55L827.37 148.01L804.95 148.01L804.95 92.41C804.95 77.21 797.35 68.5 784.01 68.5C771.04 68.5 761.95 77.58 761.95 92.78L761.95 148.01L739.53 148.01L739.53 50.16Z" />
				<path id="type &lt;CompoundPathItem&gt; 14 " class="shp0" d="M849.8 120.95L849.8 69.43L837.38 69.43L837.38 50.16L849.8 50.16L849.8 23.28L861.98 23.28C867.64 23.28 872.22 27.87 872.22 33.53L872.22 50.16L898.54 50.16L898.54 69.43L872.22 69.43L872.22 117.43C872.22 126.14 876.67 129.66 884.27 129.66C889.28 129.66 893.72 128.55 898.17 126.32L898.17 144.67C892.61 147.82 886.49 149.67 877.97 149.67C861.48 149.67 849.8 142.45 849.8 120.95Z" />
				<path id="type &lt;CompoundPathItem&gt; 13 " fill-rule="evenodd" class="shp0" d="M1143 99.45L1143 97.05C1143 70.15 1164.72 47.76 1191.62 48.12C1222.22 48.53 1237.7 72.82 1237.7 100.75C1237.7 102.79 1237.52 104.83 1237.33 107.05L1165.43 107.05C1167.84 122.99 1179.15 131.88 1193.6 131.88C1201.33 131.88 1207.48 129.85 1213.17 125.97C1217.68 122.9 1223.74 123.44 1227.82 127.06L1233.26 131.88C1223.99 143 1211.2 150.23 1193.23 150.23C1164.87 150.23 1143 129.66 1143 99.45ZM1215.47 92.23C1213.98 77.77 1205.46 66.46 1190.63 66.46C1176.92 66.46 1167.28 77.03 1165.24 92.23L1215.47 92.23Z" />
				<path id="type &lt;CompoundPathItem&gt; 12 " fill-rule="evenodd" class="shp0" d="M704.73 49.66L716.91 49.66L716.91 148.1L694.48 148.1L694.48 140.12C686.12 145.73 675.86 150.33 664.46 150.33C634.62 150.33 612.57 127.53 612.57 99.73L612.57 99.36C612.57 71.38 634.81 48.21 664.83 48.21C680.96 48.21 688.49 54.25 694.48 60.77L694.48 59.91C694.48 54.25 699.07 49.66 704.73 49.66ZM694.48 99.73L694.48 99.36C694.48 82.13 682.07 67.86 664.46 67.86C646.48 67.86 635 81.94 635 98.99L635 99.36C635 116.41 647.41 130.68 664.83 130.68C682.99 130.68 694.48 116.6 694.48 99.73Z" />
				<path id="type &lt;CompoundPathItem&gt; 11 " fill-rule="evenodd" class="shp0" d="M998.08 49.66L1010.26 49.66L1010.26 148.1L987.83 148.1L987.83 140.12C979.47 145.73 969.21 150.33 957.81 150.33C927.97 150.33 905.92 127.53 905.92 99.73L905.92 99.36C905.92 71.38 928.15 48.21 958.18 48.21C974.31 48.21 981.84 54.25 987.83 60.77L987.83 59.91C987.83 54.25 992.42 49.66 998.08 49.66ZM987.83 99.73L987.83 99.36C987.83 82.13 975.41 67.86 957.81 67.86C939.83 67.86 928.34 81.94 928.34 98.99L928.34 99.36C928.34 116.41 940.76 130.68 958.18 130.68C976.34 130.68 987.83 116.6 987.83 99.73Z" />
				<path id="type &lt;CompoundPathItem&gt; 10 " fill-rule="evenodd" class="shp0" d="M1117.71 49.66L1129.89 49.66L1129.89 144.56C1129.46 159.72 1125.27 171.13 1117.56 178.84C1108.66 187.74 1094.95 192 1077.35 192C1061.22 192 1046.21 187.92 1033.61 180.32L1041.95 163.46C1052.51 169.95 1063.44 173.84 1076.79 173.84C1095.11 173.84 1106.75 164.11 1107.47 148.57C1107.68 144.05 1107.68 141.24 1107.47 140.12C1099.1 145.73 1088.84 150.33 1077.44 150.33C1047.61 150.33 1025.55 127.53 1025.55 99.73L1025.55 99.36C1025.55 71.38 1047.79 48.21 1077.81 48.21C1093.95 48.21 1101.47 54.25 1107.47 60.77L1107.47 59.91C1107.47 54.25 1112.06 49.66 1117.71 49.66ZM1107.47 99.73L1107.47 99.36C1107.47 82.13 1095.05 67.86 1077.44 67.86C1059.47 67.86 1047.98 81.94 1047.98 98.99L1047.98 99.36C1047.98 116.41 1060.39 130.68 1077.81 130.68C1095.98 130.68 1107.47 116.6 1107.47 99.73Z" />
			</g>
			<g id="logoMark 1 ">
				<path id="logoMark &lt;PathItem&gt; 5 " class="shp1" d="M88.17 141.29C89.76 137.65 97.69 110.96 88.98 93.94C80.7 77.75 63.64 73.95 37.81 82.53C51.5 85.24 63.44 93.33 73.64 106.79C88.66 126.63 88.16 141.31 88.17 141.29Z" />
				<path id="logoMark &lt;PathItem&gt; 4 " class="shp1" d="M114.64 61.93C133.58 30.22 166.25 19.15 212.65 28.72C180.65 34.24 154.69 53.27 134.77 85.83C109.23 127.56 104.65 162.08 104.48 158.86C103.48 139.97 91.71 100.28 114.64 61.93Z" />
				<path id="logoMark &lt;PathItem&gt; 3 " class="shp1" d="M167.69 64.28C171.31 73.05 173.31 82.66 173.31 92.74C173.31 134.09 139.8 167.6 98.45 167.6C57.11 167.6 23.59 134.09 23.59 92.74C23.59 51.4 57.11 17.88 98.45 17.88C111.38 17.88 123.54 21.18 134.15 26.95C138.52 24.42 144.69 21.34 151.51 19.35C136.81 9.02 117.74 2.29 98.45 2.29C48.58 2.29 8 42.87 8 92.74C8 142.62 48.58 183.19 98.45 183.19C148.33 183.19 188.9 142.62 188.9 92.74C188.9 79.54 185.91 66.13 180.8 54.8C176.54 57.21 172.21 60.92 167.69 64.28Z" />
			</g>
		</g>
	</g>
</svg>