<?xml version="1.0" encoding="utf-8"?>
<!-- Generator: Adobe Illustrator 26.5.0, SVG Export Plug-In . SVG Version: 6.00 Build 0)  -->
<svg version="1.1" id="Layer_1" xmlns="http://www.w3.org/2000/svg" xmlns:xlink="http://www.w3.org/1999/xlink" x="0px" y="0px"
	 viewBox="0 0 300 300" style="enable-background:new 0 0 300 300;" xml:space="preserve">
<style type="text/css">
	.st0{fill:#006B76;}
	.st1{fill:#00B2A5;}
	.st2{filter:url(#Adobe_OpacityMaskFilter);}
	.st3{filter:url(#Adobe_OpacityMaskFilter_00000103250019912547731810000016794223941469695883_);}
	.st4{mask:url(#SVGID_1_);fill:url(#SVGID_00000117657327797616210600000001508412952333443510_);}
	.st5{fill:url(#SVGID_00000178196353688647318130000001404425373205719469_);}
	.st6{filter:url(#Adobe_OpacityMaskFilter_00000121248968238413404600000013779607624470043275_);}
	.st7{filter:url(#Adobe_OpacityMaskFilter_00000056413859668828711930000007955614345860580231_);}
	
		.st8{mask:url(#SVGID_00000018223466580449677070000002416648773009786547_);fill:url(#SVGID_00000051365970196219075770000014344883464987894681_);}
	.st9{fill:url(#SVGID_00000119119579540467173010000003104476876983121849_);}
	.st10{filter:url(#Adobe_OpacityMaskFilter_00000044153629259369143710000002051062414348911544_);}
	.st11{filter:url(#Adobe_OpacityMaskFilter_00000000935433565034261720000002001402420432360067_);}
	
		.st12{mask:url(#SVGID_00000060709616212266921780000001856036415585111722_);fill:url(#SVGID_00000060750797884227728740000008050857264197129392_);}
	.st13{fill:url(#SVGID_00000087407627484332912620000003565204599298701201_);}
	.st14{filter:url(#Adobe_OpacityMaskFilter_00000088098580987299107360000011040701323800683676_);}
	.st15{filter:url(#Adobe_OpacityMaskFilter_00000060030850801211269920000017144536472001783740_);}
	
		.st16{mask:url(#SVGID_00000033351933529870245390000015489981580828845480_);fill:url(#SVGID_00000167389392422824269060000002561014617532159367_);}
	.st17{fill:url(#SVGID_00000020378155251498581810000006958152729856244664_);}
	.st18{fill:#0033A1;}
	.st19{fill:#F37D30;}
</style>
<g>
	<path class="st0" d="M117.2,123.2h-8.4v8.2h-3.5v-21.1h12.7v3.1h-9.2v6.7h8.4V123.2z"/>
	<path class="st0" d="M127.8,131.6c-3.8,0-7.7-2.5-7.7-7.6c0-5,3.7-7.5,7.5-7.6c3.9-0.1,7.8,2.5,7.8,7.6
		C135.5,129.1,131.6,131.6,127.8,131.6z M127.8,128.7c2.2,0,4.3-1.6,4.3-4.7c0-3.2-2.3-4.7-4.5-4.7c-2.2,0.1-4.3,1.6-4.3,4.7
		C123.4,127.2,125.6,128.8,127.8,128.7z"/>
	<path class="st0" d="M145.3,131.6c-3.8,0-7.7-2.5-7.7-7.6c0-5,3.7-7.5,7.5-7.6c3.9-0.1,7.8,2.5,7.8,7.6
		C153,129.1,149.1,131.6,145.3,131.6z M145.3,128.7c2.2,0,4.3-1.6,4.3-4.7c0-3.2-2.3-4.7-4.5-4.7c-2.2,0.1-4.3,1.6-4.3,4.7
		C140.9,127.2,143.1,128.8,145.3,128.7z"/>
	<path class="st0" d="M166.7,128.7c-1,2.1-2.7,3-4.8,3c-4.3,0.1-6.7-3.5-6.7-7.6c0-4.5,3.1-7.4,6.9-7.4c1.3,0,2.7,0.3,4,1.1v-8.4
		h3.3v17.5c0,1.7-0.2,2.3,1.5,2.3l0.1,2.3c-2.3,0.4-4.2,0.2-4.2-2.3V128.7z M166.2,120.6c-1.2-0.8-2.4-1.2-3.6-1.1
		c-2.3,0-4.1,1.6-4.1,4.6c0,2.5,1.3,4.7,3.9,4.7c2.3,0,3.8-1.8,3.8-4V120.6z"/>
	<path class="st0" d="M189.6,115.4c-0.2-1.9-1.3-2.9-3.3-2.9c-2.3,0-3.4,1.2-3.4,2.9c0,2,1.6,3,4.1,3v2.8h-1c-2.4,0-4,1.4-4,3.8
		c0,2.2,1.8,3.8,4.3,3.8c2.6,0,4-1.6,4-4.1v-6.3h5v2.7h-2.1v3.6c0,4.4-2.6,7-7,7c-4.9,0-7.6-3.1-7.6-6.6c0-2.6,1.4-4.6,3.8-5.5
		c-1.6-0.8-2.5-2.4-2.5-4.2c0-3,2.4-5.5,6.5-5.5c4.1,0,6,1.8,6.3,5.5H189.6z"/>
	<path class="st0" d="M127.8,131.6c-3.8,0-7.7-2.5-7.7-7.6c0-5,3.7-7.5,7.5-7.6c3.9-0.1,7.8,2.5,7.8,7.6
		C135.5,129.1,131.6,131.6,127.8,131.6z M127.8,128.7c2.2,0,4.3-1.6,4.3-4.7c0-3.2-2.3-4.7-4.5-4.7c-2.2,0.1-4.3,1.6-4.3,4.7
		C123.4,127.2,125.6,128.8,127.8,128.7z"/>
	<path class="st0" d="M145.3,131.6c-3.8,0-7.7-2.5-7.7-7.6c0-5,3.7-7.5,7.5-7.6c3.9-0.1,7.8,2.5,7.8,7.6
		C153,129.1,149.1,131.6,145.3,131.6z M145.3,128.7c2.2,0,4.3-1.6,4.3-4.7c0-3.2-2.3-4.7-4.5-4.7c-2.2,0.1-4.3,1.6-4.3,4.7
		C140.9,127.2,143.1,128.8,145.3,128.7z"/>
	<path class="st0" d="M166.7,128.7c-1,2.1-2.7,3-4.8,3c-4.3,0.1-6.7-3.5-6.7-7.6c0-4.5,3.1-7.4,6.9-7.4c1.3,0,2.7,0.3,4,1.1v-8.4
		h3.3v17.5c0,1.7-0.2,2.3,1.5,2.3l0.1,2.3c-2.3,0.4-4.2,0.2-4.2-2.3V128.7z M166.2,120.6c-1.2-0.8-2.4-1.2-3.6-1.1
		c-2.3,0-4.1,1.6-4.1,4.6c0,2.5,1.3,4.7,3.9,4.7c2.3,0,3.8-1.8,3.8-4V120.6z"/>
	<path class="st0" d="M189.6,115.4c-0.2-1.9-1.3-2.9-3.3-2.9c-2.3,0-3.4,1.2-3.4,2.9c0,2,1.6,3,4.1,3v2.8h-1c-2.4,0-4,1.4-4,3.8
		c0,2.2,1.8,3.8,4.3,3.8c2.6,0,4-1.6,4-4.1v-6.3h5v2.7h-2.1v3.6c0,4.4-2.6,7-7,7c-4.9,0-7.6-3.1-7.6-6.6c0-2.6,1.4-4.6,3.8-5.5
		c-1.6-0.8-2.5-2.4-2.5-4.2c0-3,2.4-5.5,6.5-5.5c4.1,0,6,1.8,6.3,5.5H189.6z"/>
	<path class="st0" d="M109.2,156.2l-2,4.4h-3.7v-0.5l9.8-20.8h1.6l9.7,20.8v0.5h-3.6l-2.1-4.4H109.2z M110.3,153.3h7.4l-3.7-8.4
		L110.3,153.3z"/>
	<path class="st0" d="M137.4,160.2c-1.5,0.8-3,1.2-4.4,1.2c-3.7,0-6.6-2.9-6.6-7.7c0-5.3,3.7-7.7,8.1-7.6c2.1,0,4.1,0.5,6,1.4v14.2
		c0,5-3.2,7.2-7,7.3c-2,0-4.2-0.5-6.1-1.6l0.5-2.7c1.9,0.9,3.9,1.5,5.5,1.5c2.3,0,3.9-1.2,3.9-4.5V160.2z M137.3,149.4
		c-1-0.4-2-0.5-3.1-0.5c-2.8,0-4.5,1.6-4.5,4.8c0,3.2,1.8,4.8,4,4.8c1.1,0,2.4-0.4,3.6-1.1V149.4z"/>
	<path class="st0" d="M152.6,145.9c1.2,0,2.4,0.3,3.3,1l-0.8,2.8c-0.9-0.6-1.8-0.9-2.9-0.9c-2,0-3.7,1.3-3.7,3.6v8.4h-3.3v-10.5
		c0-1.3,0-2-1.6-1.9l0-2.2c2.1-0.5,4.5-0.1,4.6,2.2C148.9,146.8,150.8,145.9,152.6,145.9z"/>
	<path class="st0" d="M160.3,139.9c1,0,2,0.7,2,1.9c0,1.3-1,1.9-1.9,2c-1,0-2-0.6-2-2C158.3,140.6,159.3,139.9,160.3,139.9z
		 M161.9,160.9h-3.3v-14.4h3.3V160.9z"/>
	<path class="st0" d="M166.3,138.8h3.3v8.4c1.4-0.7,2.9-1.1,4.2-1.1c3.8,0,6.9,3,6.9,7.6c0,5.6-3.9,7.6-8.3,7.6
		c-2,0-4.2-0.5-6.1-1.2V138.8z M169.5,158.1c1.1,0.3,2.3,0.5,3.2,0.5c2.6,0,4.7-1.4,4.7-4.9c0-3-1.9-4.6-4.2-4.7
		c-1.1,0-2.5,0.3-3.7,1V158.1z"/>
	<path class="st0" d="M197,146.3v10.4c0,1.7,0.2,2.2,1.5,2.1l0,2.1c-1.9,0.3-4.5,0.7-4.5-2.4c-1,2-3,2.6-5,2.6c-4,0-5.4-2.8-5.4-6.4
		v-8.4h3.3v8.4c0,2.3,1.2,3.7,3.1,3.7c2.1,0,3.7-1.5,3.7-3.8v-8.3H197z"/>
	<path class="st0" d="M203.6,156.6c0.1,1.5,1.7,2.2,3.3,2.2c1.6,0,3.4-0.5,3.5-2.2c0-1.3-1.4-1.7-3.3-2c-3-0.4-6.3-0.7-6.4-4
		c0-3.1,3-4.5,6.2-4.5c3.3,0,6.3,1.5,6.2,4.4h-2.9c0-1.4-1.7-1.9-3.3-1.9c-1.5,0-3.1,0.7-3,2c0,1.2,1.2,1.5,3.5,1.7
		c3,0.4,6,0.9,6,4.3c0,3.2-3.1,4.6-6.3,4.6c-3.2,0-6.4-1-6.7-4.6H203.6z"/>
	<path class="st0" d="M218.5,139.9c1,0,2,0.7,2,1.9c0,1.3-1,1.9-1.9,2c-1,0-2-0.6-2-2C216.5,140.6,217.5,139.9,218.5,139.9z
		 M220.2,160.9h-3.3v-14.4h3.3V160.9z"/>
	<path class="st0" d="M235.3,160.9v-8.5c0-2.3-1.4-3.6-3.4-3.7c-2,0-3.7,1.6-3.7,3.9v8.3H225v-10.3c0-1.7-0.1-2.2-1.5-2.1v-2.1
		c2.1-0.4,4.5-0.5,4.5,2.3c0.8-1.8,3-2.5,4.9-2.5c3.9,0,5.8,2.7,5.8,6.3v8.5H235.3z"/>
	<path class="st0" d="M255.9,154.2h-10.7c0,2.7,2.1,4.2,4.7,4.2c1.8,0.1,3.6-0.2,5.3-0.9l0.4,2.4c-1.7,0.8-3.6,1.2-5.5,1.2
		c-4.8,0.1-8.3-3-8.2-7.9c0.1-4.8,3.6-7.3,7.5-7.3C254.6,146,256.9,149.4,255.9,154.2z M245.2,151.9h8c0.1-2.2-1.7-3.3-3.8-3.3
		C247.3,148.5,245.7,149.6,245.2,151.9z"/>
	<path class="st0" d="M261.9,156.6c0.1,1.5,1.7,2.2,3.3,2.2c1.6,0,3.4-0.5,3.5-2.2c0-1.3-1.4-1.7-3.3-2c-3-0.4-6.3-0.7-6.4-4
		c0-3.1,3-4.5,6.2-4.5c3.3,0,6.3,1.5,6.2,4.4h-2.9c0-1.4-1.7-1.9-3.3-1.9c-1.5,0-3.1,0.7-3,2c0,1.2,1.2,1.5,3.5,1.7
		c3,0.4,6,0.9,6,4.3c0,3.2-3.1,4.6-6.3,4.6c-3.2,0-6.4-1-6.7-4.6H261.9z"/>
	<path class="st0" d="M277.6,156.6c0.1,1.5,1.7,2.2,3.3,2.2c1.6,0,3.4-0.5,3.5-2.2c0-1.3-1.4-1.7-3.3-2c-3-0.4-6.3-0.7-6.4-4
		c0-3.1,3-4.5,6.2-4.5c3.3,0,6.3,1.5,6.2,4.4h-2.9c0-1.4-1.7-1.9-3.3-1.9c-1.5,0-3.1,0.7-3,2c0,1.2,1.2,1.5,3.5,1.7
		c3,0.4,6,0.9,6,4.3c0,3.2-3.1,4.6-6.3,4.6c-3.2,0-6.4-1-6.7-4.6H277.6z"/>
	<path class="st0" d="M108.6,176l0.2,6.7v7.7h-3.5v-21.1h1.3l12.8,14.2l-0.2-6.4v-7.7h3.5v21.1h-1.2L108.6,176z"/>
	<path class="st0" d="M139.8,183.7h-10.7c0,2.7,2.1,4.2,4.7,4.2c1.8,0.1,3.6-0.2,5.3-0.9l0.4,2.4c-1.7,0.8-3.6,1.2-5.5,1.2
		c-4.8,0.1-8.3-3-8.2-7.9c0.1-4.8,3.6-7.3,7.5-7.3C138.5,175.5,140.8,178.8,139.8,183.7z M129.1,181.3h8c0.1-2.2-1.7-3.3-3.8-3.3
		C131.2,178,129.6,179.1,129.1,181.3z"/>
	<path class="st0" d="M148.4,175.8h5v2.3h-5v6.5c0,3.7,2.3,3.9,5.3,2.9l0.3,2.5c-5,1.5-8.9,0.4-8.9-5.3v-6.6l-3-0.2v-2.1h3l0.3-4.5
		h2.9V175.8z"/>
	<path class="st0" d="M161.5,190.5l-5.7-14.3v-0.4h3.5l1.8,5l1.4,4h0.1l3.5-8.6h1.6l3.5,8.7h0.1l1.4-4c0.6-1.7,1.2-3.3,1.8-5h3.6
		v0.4l-5.8,14.3h-1.5l-3.9-8.8l-3.9,8.8H161.5z"/>
	<path class="st0" d="M187,190.6c-3.8,0-7.7-2.5-7.7-7.6c0-5,3.7-7.5,7.5-7.6c3.9-0.1,7.8,2.5,7.8,7.6
		C194.7,188.1,190.8,190.6,187,190.6z M187.1,187.7c2.2,0,4.3-1.6,4.3-4.7c0-3.2-2.3-4.7-4.5-4.7c-2.2,0.1-4.3,1.6-4.3,4.7
		C182.6,186.2,184.8,187.7,187.1,187.7z"/>
	<path class="st0" d="M205.3,175.3c1.2,0,2.4,0.3,3.3,1l-0.8,2.8c-0.9-0.6-1.8-0.9-2.9-0.9c-2,0-3.7,1.3-3.7,3.6v8.4H198v-10.5
		c0-1.3,0-2-1.6-1.9l0-2.2c2.1-0.5,4.5-0.1,4.6,2.2C201.6,176.2,203.5,175.3,205.3,175.3z"/>
	<path class="st0" d="M216.1,181.5c3.6,0,4.9-2.2,4.9-5.7h3.1c0.1,3.1-0.8,5.7-3.8,7.1l4.5,7.1v0.3h-3.3l-4-6.4
		c-0.5,0.1-1,0.2-1.5,0.2h-1.4v6.2h-3.3v-22h3.3v13.2H216.1z"/>
	<g>
		<path class="st1" d="M87.1,151.4h5.6c-0.2-22.6-18.6-40.9-41.1-41.1v5.6C71,116.1,86.8,131.9,87.1,151.4z"/>
		<path class="st0" d="M51.7,120v5.6c14.1,0.2,25.5,11.7,25.7,25.7H83C82.8,134.2,68.9,120.3,51.7,120z"/>
		<path class="st1" d="M18.3,149.2h-5.6c0.2,22.6,18.6,40.9,41.1,41.1v-5.6C34.3,184.5,18.5,168.7,18.3,149.2z"/>
		<path class="st1" d="M32.2,145.5v3.2c0,0,0,0.1,0,0.1c0,12,9.6,21.8,21.6,22v-5.6c-8.8-0.2-15.9-7.4-15.9-16.2c0,0,0-0.1,0-0.1
			v-38.5h-5.6v19.1c0,0.2-0.2,0.4-0.4,0.4H12.6v5.6l19.1,0c0.1,0,0.2,0,0.3,0.1c0.1,0.1,0.1,0.2,0.1,0.3v3.1V145.5z"/>
		<path class="st0" d="M47.5,148.8C47.5,148.8,47.5,148.8,47.5,148.8l0-38.6h-5.6v38.5c0,0,0,0,0,0.1c0,6.7,5.3,12.1,11.9,12.3v-5.6
			C50.3,155.3,47.5,152.4,47.5,148.8z"/>
		<path class="st0" d="M22.3,149.2c0.2,17.2,14.2,31.1,31.4,31.4V175c-14.1-0.2-25.5-11.7-25.7-25.7H22.3z"/>
		<path class="st0" d="M59.7,143c-2.2-2.1-5.1-3.4-8.1-3.5v5.6c3.5,0.2,6.2,3.1,6.3,6.6v38.6h5.6v-38.9c0,0,0-0.1,0-0.1
			C63.3,148.2,62,145.2,59.7,143z"/>
		<path class="st1" d="M73.1,164.7v-3.2v-6.5v-1.7v-1.9c0,0,0-0.1,0-0.1c-0.1-5.8-2.5-11.2-6.6-15.3c-4-4-9.3-6.2-15-6.3v5.6
			c4.1,0.1,8,1.8,11,4.7c3.1,3,4.8,7,4.9,11.3c0,0,0,0.1,0,0.1v38.9h5.7v-18.2v-0.9V164.7z"/>
		<path class="st0" d="M73.6,161.1h19.1v-5.6H73.6c-0.2,0-0.4-0.2-0.4-0.4v6.5C73.1,161.3,73.3,161.1,73.6,161.1z"/>
		<path class="st0" d="M31.7,145.1H12.6v-5.6h19.1c0.2,0,0.4-0.2,0.4-0.4v6.5C32.2,145.3,32,145.1,31.7,145.1z"/>
		<path class="st1" d="M73.6,170.8h19.1v-5.6H73.6c-0.2,0-0.4-0.2-0.4-0.4v6.5C73.1,171,73.3,170.8,73.6,170.8z"/>
	</g>
</g>
</svg>
